<svg xmlns="http://www.w3.org/2000/svg" width="1200" height="590" viewBox="0 0 1200 590" role="img" aria-labelledby="title desc">
  <title id="title">Exam Agent 核心功能模块</title><desc id="desc">六个招考数据分析功能模块</desc>
  <defs><linearGradient id="bg" x1="0" y1="0" x2="1200" y2="590"><stop stop-color="#0C1727"/><stop offset="1" stop-color="#15172C"/></linearGradient><linearGradient id="line"><stop stop-color="#65AFC8"/><stop offset="1" stop-color="#9381C8"/></linearGradient></defs>
  <rect x="1" y="1" width="1198" height="588" rx="28" fill="url(#bg)" stroke="#293E58" stroke-width="2"/>
  <text x="600" y="65" text-anchor="middle" fill="#F1F5F9" font-family="Arial,'Microsoft YaHei',sans-serif" font-size="32" font-weight="700">核心功能模块</text>
  <text x="600" y="97" text-anchor="middle" fill="#8699AC" font-family="Arial,'Microsoft YaHei',sans-serif" font-size="16">从数据准备到岗位决策的一体化工作台</text>
  <g font-family="Arial,'Microsoft YaHei',sans-serif">
    <g transform="translate(70 135)"><rect width="330" height="175" rx="22" fill="#12243A" stroke="#31526E"/><circle cx="48" cy="48" r="25" fill="#17334B"/><path d="M37 47h22M48 36v22M38 62c7-5 13-5 20 0" stroke="#7DC1D2" stroke-width="3" fill="none" stroke-linecap="round"/><text x="88" y="48" fill="#EAF1F6" font-size="23" font-weight="700">招考分析师</text><text x="28" y="110" fill="#AAB9C8" font-size="16">自然语言提问，生成岗位卡片</text><rect x="28" y="134" width="118" height="5" rx="3" fill="url(#line)"/></g>
    <g transform="translate(435 135)"><rect width="330" height="175" rx="22" fill="#12243A" stroke="#31526E"/><circle cx="48" cy="48" r="25" fill="#17334B"/><path d="M35 38h26v22H35zM41 33h14M41 65h14M48 42v13m-5-5 5 5 5-5" stroke="#7DC1D2" stroke-width="2.5" fill="none" stroke-linecap="round" stroke-linejoin="round"/><text x="88" y="48" fill="#EAF1F6" font-size="23" font-weight="700">数据导入</text><text x="28" y="110" fill="#AAB9C8" font-size="16">自动识别、字段映射、清洗预览</text><rect x="28" y="134" width="118" height="5" rx="3" fill="url(#line)"/></g>
    <g transform="translate(800 135)"><rect width="330" height="175" rx="22" fill="#12243A" stroke="#31526E"/><circle cx="48" cy="48" r="25" fill="#17334B"/><ellipse cx="48" cy="38" rx="14" ry="6" fill="none" stroke="#7DC1D2" stroke-width="2.5"/><path d="M34 38v19c0 8 28 8 28 0V38M34 48c0 8 28 8 28 0" stroke="#7DC1D2" stroke-width="2.5" fill="none"/><text x="88" y="48" fill="#EAF1F6" font-size="23" font-weight="700">数据中心</text><text x="28" y="110" fill="#AAB9C8" font-size="16">查看清洗后的结构化数据</text><rect x="28" y="134" width="118" height="5" rx="3" fill="url(#line)"/></g>
    <g transform="translate(70 345)"><rect width="330" height="175" rx="22" fill="#171F38" stroke="#48456B"/><circle cx="48" cy="48" r="25" fill="#232A49"/><path d="M36 35h24v27H36zM41 42h14M41 49h14M41 56h8" stroke="#A494D3" stroke-width="2.5" fill="none" stroke-linecap="round"/><text x="88" y="48" fill="#EAF1F6" font-size="23" font-weight="700">单岗位查询</text><text x="28" y="110" fill="#AAB9C8" font-size="16">查看岗位条件和分数参考</text><rect x="28" y="134" width="118" height="5" rx="3" fill="url(#line)"/></g>
    <g transform="translate(435 345)"><rect width="330" height="175" rx="22" fill="#171F38" stroke="#48456B"/><circle cx="48" cy="48" r="25" fill="#232A49"/><path d="M36 39h9v23h-9zM52 34h9v28h-9zM41 34l15 28" stroke="#A494D3" stroke-width="2.5" fill="none" stroke-linejoin="round"/><text x="88" y="48" fill="#EAF1F6" font-size="23" font-weight="700">岗位对比</text><text x="28" y="110" fill="#AAB9C8" font-size="16">对比岗位限制和竞争风险</text><rect x="28" y="134" width="118" height="5" rx="3" fill="url(#line)"/></g>
    <g transform="translate(800 345)"><rect width="330" height="175" rx="22" fill="#171F38" stroke="#48456B"/><circle cx="48" cy="48" r="25" fill="#232A49"/><circle cx="48" cy="42" r="8" fill="none" stroke="#A494D3" stroke-width="2.5"/><path d="M34 62c3-10 25-10 28 0" stroke="#A494D3" stroke-width="2.5" fill="none" stroke-linecap="round"/><text x="88" y="48" fill="#EAF1F6" font-size="23" font-weight="700">我的画像</text><text x="28" y="110" fill="#AAB9C8" font-size="16">管理地区、学历、专业等条件</text><rect x="28" y="134" width="118" height="5" rx="3" fill="url(#line)"/></g>
  </g>
</svg>
